<svg xmlns="http://www.w3.org/2000/svg" viewBox="0 0 658 270"><g id="Layer_1" data-name="Layer 1"><g id="akka-streams-full-color"><path d="M316.6,209.12V193.57h4.29v33.88c0,2.55.58,3.65,2.2,3.65a13.69,13.69,0,0,0,1.51-.12v3.25a7.14,7.14,0,0,1-2.72.47,5.33,5.33,0,0,1-3.08-.82,5.72,5.72,0,0,1-2-4.17c-2.2,3.42-5.74,5.16-10.61,5.16a14,14,0,0,1-10.5-4.41,16.38,16.38,0,0,1,0-22.1,14.09,14.09,0,0,1,10.5-4.46C311.5,203.9,314.92,206.16,316.6,209.12ZM314,227.62a11.46,11.46,0,0,0,3.13-8.24,11.22,11.22,0,0,0-3.13-8.17,10.11,10.11,0,0,0-7.77-3.31,9.79,9.79,0,0,0-7.54,3.31,11.61,11.61,0,0,0-3,8.17,11.87,11.87,0,0,0,3,8.24,9.94,9.94,0,0,0,7.54,3.25A10.27,10.27,0,0,0,314,227.62Z" fill="#0b5567"/><path d="M349.89,209.12v-4.35h4.29v22.68c0,2.55.58,3.65,2.21,3.65a13.71,13.71,0,0,0,1.5-.12v3.25a7.14,7.14,0,0,1-2.72.47,5.33,5.33,0,0,1-3.08-.82,5.75,5.75,0,0,1-2-4.17c-2.2,3.42-5.74,5.16-10.61,5.16a14,14,0,0,1-10.5-4.41,16.38,16.38,0,0,1,0-22.1,14.09,14.09,0,0,1,10.5-4.46C344.79,203.9,348.21,206.16,349.89,209.12Zm-2.61,18.5a11.46,11.46,0,0,0,3.13-8.24,11.22,11.22,0,0,0-3.13-8.17,10.11,10.11,0,0,0-7.77-3.31,9.79,9.79,0,0,0-7.54,3.31,11.61,11.61,0,0,0-3,8.17,11.87,11.87,0,0,0,3,8.24,9.94,9.94,0,0,0,7.54,3.25A10.27,10.27,0,0,0,347.28,227.62Z" fill="#0b5567"/><path d="M362.3,208.77h-3.42v-4h3.42v-11.2h4.29v11.2h6.79v4h-6.79v17c0,3.71,1.22,5.05,4.06,5.05a17.26,17.26,0,0,0,2.73-.18v3.72a8.55,8.55,0,0,1-3.25.46q-7.83,0-7.83-9.05Z" fill="#0b5567"/><path d="M399.31,209.12v-4.35h4.29v22.68c0,2.55.58,3.65,2.2,3.65a13.69,13.69,0,0,0,1.51-.12v3.25a7.2,7.2,0,0,1-2.73.47,5.29,5.29,0,0,1-3.07-.82,5.72,5.72,0,0,1-2-4.17c-2.21,3.42-5.74,5.16-10.62,5.16a14,14,0,0,1-10.49-4.41,16.35,16.35,0,0,1,0-22.1,14.09,14.09,0,0,1,10.49-4.46C394.2,203.9,397.62,206.16,399.31,209.12Zm-2.61,18.5a11.51,11.51,0,0,0,3.13-8.24,11.26,11.26,0,0,0-3.13-8.17,10.12,10.12,0,0,0-7.78-3.31,9.8,9.8,0,0,0-7.54,3.31,11.6,11.6,0,0,0-2.95,8.17,11.86,11.86,0,0,0,2.95,8.24,10,10,0,0,0,7.54,3.25A10.28,10.28,0,0,0,396.7,227.62Z" fill="#0b5567"/><path d="M420.71,245.19V204.77H425v4.35c1.68-3,5.1-5.22,10.38-5.22a14.09,14.09,0,0,1,10.5,4.46,16.38,16.38,0,0,1,0,22.1,14,14,0,0,1-10.5,4.41c-5.28,0-8.7-2.26-10.38-5.22v15.54Zm22.15-17.57a11.64,11.64,0,0,0,3-8.24,11.39,11.39,0,0,0-3-8.17,9.58,9.58,0,0,0-7.48-3.31,10.33,10.33,0,0,0-7.83,3.31,11.42,11.42,0,0,0-3.07,8.17,11.68,11.68,0,0,0,3.07,8.24,10.49,10.49,0,0,0,7.83,3.25A9.72,9.72,0,0,0,442.86,227.62Z" fill="#0b5567"/><path d="M454.52,199.08a2.86,2.86,0,0,1,0-4.11,2.8,2.8,0,0,1,4.06,0,2.86,2.86,0,0,1,0,4.11A2.89,2.89,0,0,1,454.52,199.08Zm-.11,5.69h4.29v23c0,2.14.58,3.07,2.2,3.07a13.69,13.69,0,0,0,1.51-.12v3.54a7.2,7.2,0,0,1-2.73.47c-3.53,0-5.27-2.09-5.27-6.21Z" fill="#0b5567"/><path d="M465.48,245.19V204.77h4.3v4.35c1.68-3,5.1-5.22,10.38-5.22a14.07,14.07,0,0,1,10.49,4.46,16.35,16.35,0,0,1,0,22.1,14,14,0,0,1-10.49,4.41c-5.28,0-8.7-2.26-10.38-5.22v15.54Zm22.16-17.57a11.63,11.63,0,0,0,3-8.24,11.38,11.38,0,0,0-3-8.17,9.59,9.59,0,0,0-7.48-3.31,10.33,10.33,0,0,0-7.83,3.31,11.43,11.43,0,0,0-3.08,8.17,11.68,11.68,0,0,0,3.08,8.24,10.49,10.49,0,0,0,7.83,3.25A9.74,9.74,0,0,0,487.64,227.62Z" fill="#0b5567"/><path d="M499,219.5c0-4.7,1.39-8.47,4.11-11.31a14,14,0,0,1,10.5-4.29,12.23,12.23,0,0,1,9.69,4.23,14.94,14.94,0,0,1,3.77,10.33c0,.63,0,1.27-.06,1.85H503.3c.23,6.44,4.35,10.56,10.44,10.56,4,0,6.38-1.28,9-4.06l2.84,2.78a15.21,15.21,0,0,1-11.83,5.16,14.52,14.52,0,0,1-10.67-4.11c-2.73-2.73-4.06-6.38-4.06-10.91Zm23.49-3a8.16,8.16,0,0,0-2.61-6.09,8.73,8.73,0,0,0-6.27-2.55,10.15,10.15,0,0,0-6.9,2.55,8.72,8.72,0,0,0-3.13,6.09Z" fill="#0b5567"/><path d="M531.14,193.57h4.29v32.77c0,3.25.93,4.53,3.65,4.53a14.92,14.92,0,0,0,2.09-.12v3.66a5.94,5.94,0,0,1-2.67.46,8.37,8.37,0,0,1-4.75-1.28c-1.63-1-2.61-3.42-2.61-7Z" fill="#0b5567"/><path d="M544.59,199.08a2.86,2.86,0,0,1,0-4.11,2.8,2.8,0,0,1,4.06,0,2.86,2.86,0,0,1,0,4.11A2.89,2.89,0,0,1,544.59,199.08Zm-.11,5.69h4.29v23c0,2.14.58,3.07,2.2,3.07a13.69,13.69,0,0,0,1.51-.12v3.54a7.14,7.14,0,0,1-2.72.47c-3.54,0-5.28-2.09-5.28-6.21Z" fill="#0b5567"/><path d="M556.72,234V204.77H561v4.93a9.8,9.8,0,0,1,9.22-5.4c6.55,0,10.67,4.35,10.67,11v12.07c0,2.38.35,3.07,2,3.07.29,0,.64-.06,1.1-.11v3.53a5.23,5.23,0,0,1-1.85.29c-2.26,0-5.57-.63-5.57-6.49V216.25c0-4.87-2.84-7.94-7.48-7.94-4.82,0-8.12,3.36-8.12,8.23V234Z" fill="#0b5567"/><path d="M585,219.5c0-4.7,1.39-8.47,4.12-11.31a14,14,0,0,1,10.5-4.29,12.2,12.2,0,0,1,9.68,4.23A14.89,14.89,0,0,1,613,218.46c0,.63,0,1.27-.06,1.85H589.25c.23,6.44,4.35,10.56,10.44,10.56,4,0,6.38-1.28,9-4.06l2.84,2.78a15.2,15.2,0,0,1-11.83,5.16A14.54,14.54,0,0,1,589,230.64c-2.73-2.73-4.06-6.38-4.06-10.91Zm23.49-3a8.16,8.16,0,0,0-2.61-6.09,8.73,8.73,0,0,0-6.26-2.55,10.19,10.19,0,0,0-6.91,2.55,8.75,8.75,0,0,0-3.13,6.09Z" fill="#0b5567"/><path d="M617.27,226.29c.75,2.49,3.36,4.4,7.36,4.4,4.82,0,6.44-2.2,6.44-4.46a3.75,3.75,0,0,0-1.62-3.31,30.46,30.46,0,0,0-5.69-2.78c-5.33-2.09-7.94-4.29-7.94-8.53,0-4.46,3.65-7.71,8.81-7.71a8.76,8.76,0,0,1,8.47,5l-3.48,1.8a5.24,5.24,0,0,0-4.93-2.9c-2.73,0-4.58,1.39-4.58,3.77s2,3.6,6.38,5.28c6,2.32,8.87,4.87,8.87,9.34,0,4.64-3.77,8.47-10.73,8.47-5.57,0-9.86-2.56-11-7Z" fill="#0b5567"/><g id="akka"><path d="M349.64,105.46V93.34h19.92v58.44c0,7.13,1.66,9.79,6.14,9.79,1.17,0,2.66-.17,4.15-.33v16.1a28.71,28.71,0,0,1-9.79,1.33c-4.81,0-8.63-.83-11.62-2.66a15.41,15.41,0,0,1-6.81-10.12C345.82,174.68,336.2,179,322.92,179A39.74,39.74,0,0,1,293,166.38c-8-8.46-12-18.75-12-31.2s4-22.75,12-31.05a39.77,39.77,0,0,1,29.88-12.61C336.36,91.52,346.49,97.49,349.64,105.46Zm-6,48a24.42,24.42,0,0,0,7.47-18.26,24.39,24.39,0,0,0-7.47-18.26,24.79,24.79,0,0,0-18.1-7.31,24,24,0,0,0-17.76,7.31c-4.65,4.81-7,11-7,18.26s2.32,13.44,7,18.26a24,24,0,0,0,17.76,7.3A24.82,24.82,0,0,0,343.67,153.44Z" fill="#0b5567"/><path d="M388.48,177V61.31h19.76v67.56l30.87-35.53H462l-32.7,37.35L465.51,177H442.93l-26.39-33.7-8.3,9.3V177Z" fill="#0b5567"/><path d="M470.82,177V61.31h19.75v67.56l30.88-35.53h22.91l-32.7,37.35L547.84,177H525.27l-26.4-33.7-8.3,9.3V177Z" fill="#0b5567"/><path d="M607.87,105.46V93.34h19.92v58.44c0,7.13,1.66,9.79,6.14,9.79,1.17,0,2.66-.17,4.15-.33v16.1a28.71,28.71,0,0,1-9.79,1.33c-4.81,0-8.63-.83-11.62-2.66a15.41,15.41,0,0,1-6.81-10.12c-5.81,8.79-15.43,13.11-28.71,13.11a39.74,39.74,0,0,1-29.88-12.62c-8-8.46-12-18.75-12-31.2s4-22.75,12-31.05a39.77,39.77,0,0,1,29.88-12.61C594.59,91.52,604.72,97.49,607.87,105.46Zm-6,48a24.42,24.42,0,0,0,7.47-18.26,24.39,24.39,0,0,0-7.47-18.26,24.79,24.79,0,0,0-18.1-7.31A24,24,0,0,0,566,116.92c-4.65,4.81-7,11-7,18.26s2.32,13.44,7,18.26a24,24,0,0,0,17.76,7.3A24.82,24.82,0,0,0,601.9,153.44Z" fill="#0b5567"/></g><g id="icon"><path d="M230.26,212.82c35.88,28.67,58.91-57,1.74-72.82-48-13.29-96.33,9.5-144.66,62.74C87.34,202.74,176.67,170,230.26,212.82Z" fill="#0b5567"/><path d="M88.08,202c34.41-35.69,91.64-75.53,144.9-60.75A46.09,46.09,0,0,1,259.9,160.6L209.48,58.78c-7.2-11.46-25.58-9.15-35.95-.26L40.29,170.07a27.4,27.4,0,0,0-1.56,40.15l0,0a27.4,27.4,0,0,0,36.51,2L88.14,202Z" fill="#15a9ce"/></g></g></g></svg>