<svg xmlns="http://www.w3.org/2000/svg" viewBox="0 0 658 270"><g id="Layer_1" data-name="Layer 1"><g id="akka-streams-full-color"><path d="M426.51,245.19V204.77h4.29v4.35c1.68-3,5.1-5.22,10.38-5.22a14.09,14.09,0,0,1,10.5,4.46,16.38,16.38,0,0,1,0,22.1,14,14,0,0,1-10.5,4.41c-5.28,0-8.7-2.26-10.38-5.22v15.54Zm22.15-17.57a11.64,11.64,0,0,0,3-8.24,11.39,11.39,0,0,0-3-8.17,9.58,9.58,0,0,0-7.48-3.31,10.33,10.33,0,0,0-7.83,3.31,11.42,11.42,0,0,0-3.07,8.17,11.68,11.68,0,0,0,3.07,8.24,10.49,10.49,0,0,0,7.83,3.25A9.72,9.72,0,0,0,448.66,227.62Z" fill="#fff"/><path d="M460.21,193.57h4.29v32.77c0,3.25.92,4.53,3.65,4.53a15,15,0,0,0,2.09-.12v3.66a5.94,5.94,0,0,1-2.67.46,8.41,8.41,0,0,1-4.76-1.28c-1.62-1-2.6-3.42-2.6-7Z" fill="#fff"/><path d="M496.51,209.12v-4.35h4.29v22.68c0,2.55.58,3.65,2.21,3.65a14.09,14.09,0,0,0,1.51-.12v3.25a7.24,7.24,0,0,1-2.73.47,5.27,5.27,0,0,1-3.07-.82,5.72,5.72,0,0,1-2-4.17c-2.2,3.42-5.74,5.16-10.61,5.16a14,14,0,0,1-10.5-4.41,16.38,16.38,0,0,1,0-22.1,14.09,14.09,0,0,1,10.5-4.46C491.41,203.9,494.83,206.16,496.51,209.12Zm-2.61,18.5a11.46,11.46,0,0,0,3.13-8.24,11.22,11.22,0,0,0-3.13-8.17,10.11,10.11,0,0,0-7.77-3.31,9.79,9.79,0,0,0-7.54,3.31,11.61,11.61,0,0,0-3,8.17,11.87,11.87,0,0,0,3,8.24,9.94,9.94,0,0,0,7.54,3.25A10.27,10.27,0,0,0,493.9,227.62Z" fill="#fff"/><path d="M508.92,208.77H505.5v-4h3.42v-11.2h4.3v11.2H520v4h-6.78v17c0,3.71,1.21,5.05,4.06,5.05a17.21,17.21,0,0,0,2.72-.18v3.72a8.55,8.55,0,0,1-3.25.46q-7.83,0-7.83-9.05Z" fill="#fff"/><path d="M528.12,234V208.77h-4.7v-4h4.7v-2.44c0-3.77.93-6.38,2.84-7.94,1.28-1.11,3.25-1.68,6-1.68a8.5,8.5,0,0,1,2.26.23V197a11.52,11.52,0,0,0-2.73-.29c-2.84,0-4.06,1.39-4.06,5v3h5.51v4h-5.51V234Z" fill="#fff"/><path d="M537.75,219.38a14.82,14.82,0,0,1,4.52-11,15.84,15.84,0,0,1,22,0,15.74,15.74,0,0,1,0,22.1,15.54,15.54,0,0,1-26.56-11.08Zm4.29,0a11.26,11.26,0,0,0,3.19,8.24,11.62,11.62,0,0,0,16.12,0,11.26,11.26,0,0,0,3.19-8.24,11,11,0,0,0-3.19-8.17,11.47,11.47,0,0,0-16.12,0A11,11,0,0,0,542,219.38Z" fill="#fff"/><path d="M573,234V204.77h4.29v4.93a9.59,9.59,0,0,1,9-5.4,16,16,0,0,1,1.8.12v4.64a13.39,13.39,0,0,0-2.9-.29c-4.58,0-7.89,3.36-7.89,8.24v17Z" fill="#fff"/><path d="M591.63,234V204.77h4.29v4.93a8.62,8.62,0,0,1,8.24-5.4,8.52,8.52,0,0,1,8.58,5.8c1.74-3.88,4.76-5.8,9.11-5.8,5.86,0,9.51,4.35,9.51,11v12.07c0,2.32.41,3.07,2,3.07.29,0,.64-.06,1.1-.11v3.53a5.25,5.25,0,0,1-1.86.29c-2.26,0-5.56-.63-5.56-6.49V216.25c0-4.87-2.44-7.94-6.38-7.94s-7,3.36-7,8.23V234h-4.29V216.25c0-4.93-2.38-7.94-6.5-7.94s-7,3.36-7,8.23V234Z" fill="#fff"/><g id="akka"><path d="M349.64,105.46V93.34h19.92v58.44c0,7.13,1.66,9.79,6.14,9.79,1.17,0,2.66-.17,4.15-.33v16.1a28.71,28.71,0,0,1-9.79,1.33c-4.81,0-8.63-.83-11.62-2.66a15.41,15.41,0,0,1-6.81-10.12C345.82,174.68,336.2,179,322.92,179A39.74,39.74,0,0,1,293,166.38c-8-8.46-12-18.75-12-31.2s4-22.75,12-31.05a39.77,39.77,0,0,1,29.88-12.61C336.36,91.52,346.49,97.49,349.64,105.46Zm-6,48a24.42,24.42,0,0,0,7.47-18.26,24.39,24.39,0,0,0-7.47-18.26,24.79,24.79,0,0,0-18.1-7.31,24,24,0,0,0-17.76,7.31c-4.65,4.81-7,11-7,18.26s2.32,13.44,7,18.26a24,24,0,0,0,17.76,7.3A24.82,24.82,0,0,0,343.67,153.44Z" fill="#fff"/><path d="M388.48,177V61.31h19.76v67.56l30.87-35.53H462l-32.7,37.35L465.51,177H442.93l-26.39-33.7-8.3,9.3V177Z" fill="#fff"/><path d="M470.82,177V61.31h19.75v67.56l30.88-35.53h22.91l-32.7,37.35L547.84,177H525.27l-26.4-33.7-8.3,9.3V177Z" fill="#fff"/><path d="M607.87,105.46V93.34h19.92v58.44c0,7.13,1.66,9.79,6.14,9.79,1.17,0,2.66-.17,4.15-.33v16.1a28.71,28.71,0,0,1-9.79,1.33c-4.81,0-8.63-.83-11.62-2.66a15.41,15.41,0,0,1-6.81-10.12c-5.81,8.79-15.43,13.11-28.71,13.11a39.74,39.74,0,0,1-29.88-12.62c-8-8.46-12-18.75-12-31.2s4-22.75,12-31.05a39.77,39.77,0,0,1,29.88-12.61C594.59,91.52,604.72,97.49,607.87,105.46Zm-6,48a24.42,24.42,0,0,0,7.47-18.26,24.39,24.39,0,0,0-7.47-18.26,24.79,24.79,0,0,0-18.1-7.31A24,24,0,0,0,566,116.92c-4.65,4.81-7,11-7,18.26s2.32,13.44,7,18.26a24,24,0,0,0,17.76,7.3A24.82,24.82,0,0,0,601.9,153.44Z" fill="#fff"/></g><g id="icon"><path d="M230.26,212.82c35.88,28.67,58.91-57,1.74-72.82-48-13.29-96.33,9.5-144.66,62.74C87.34,202.74,176.67,170,230.26,212.82Z" fill="#fff" opacity="0.5"/><path d="M88.08,202c34.41-35.69,91.64-75.53,144.9-60.75A46.09,46.09,0,0,1,259.9,160.6L209.48,58.78c-7.2-11.46-25.58-9.15-35.95-.26L40.29,170.07a27.4,27.4,0,0,0-1.56,40.15l0,0a27.4,27.4,0,0,0,36.51,2L88.14,202Z" fill="#fff"/></g></g></g></svg>