<svg xmlns="http://www.w3.org/2000/svg" viewBox="0 0 658 270"><g id="Layer_1" data-name="Layer 1"><g id="akka-streams-full-color"><path d="M400.35,226.29c.75,2.49,3.36,4.4,7.37,4.4,4.81,0,6.43-2.2,6.43-4.46a3.75,3.75,0,0,0-1.62-3.31,30.29,30.29,0,0,0-5.68-2.78c-5.34-2.09-8-4.29-8-8.53,0-4.46,3.65-7.71,8.82-7.71a8.75,8.75,0,0,1,8.46,5l-3.48,1.8a5.23,5.23,0,0,0-4.93-2.9c-2.72,0-4.58,1.39-4.58,3.77s2,3.6,6.38,5.28c6,2.32,8.88,4.87,8.88,9.34,0,4.64-3.77,8.47-10.73,8.47-5.57,0-9.86-2.56-11-7Z" fill="#fff"/><path d="M421.69,219.5c0-4.7,1.4-8.47,4.12-11.31a14,14,0,0,1,10.5-4.29,12.23,12.23,0,0,1,9.69,4.23,14.93,14.93,0,0,1,3.76,10.33c0,.63,0,1.27-.05,1.85H426c.23,6.44,4.35,10.56,10.44,10.56,4,0,6.37-1.28,9-4.06l2.84,2.78a15.23,15.23,0,0,1-11.83,5.16,14.56,14.56,0,0,1-10.68-4.11c-2.72-2.73-4.06-6.38-4.06-10.91Zm23.49-3a8.16,8.16,0,0,0-2.61-6.09,8.71,8.71,0,0,0-6.26-2.55,10.15,10.15,0,0,0-6.9,2.55,8.68,8.68,0,0,0-3.13,6.09Z" fill="#fff"/><path d="M453.77,234V204.77h4.29v4.93a9.57,9.57,0,0,1,9-5.4,16,16,0,0,1,1.8.12v4.64a13.46,13.46,0,0,0-2.9-.29c-4.58,0-7.89,3.36-7.89,8.24v17Z" fill="#fff"/><path d="M482.48,234,470,204.77h4.52L483.93,227l9.45-22.27H498L485.43,234Z" fill="#fff"/><path d="M497.9,219.5c0-4.7,1.4-8.47,4.12-11.31a14,14,0,0,1,10.5-4.29,12.23,12.23,0,0,1,9.69,4.23A14.94,14.94,0,0,1,526,218.46c0,.63,0,1.27-.06,1.85H502.2c.23,6.44,4.35,10.56,10.44,10.56,4,0,6.38-1.28,9-4.06l2.84,2.78a15.23,15.23,0,0,1-11.83,5.16A14.56,14.56,0,0,1,502,230.64c-2.72-2.73-4.06-6.38-4.06-10.91Zm23.49-3a8.16,8.16,0,0,0-2.61-6.09,8.71,8.71,0,0,0-6.26-2.55,10.15,10.15,0,0,0-6.9,2.55,8.68,8.68,0,0,0-3.13,6.09Z" fill="#fff"/><path d="M530,234V204.77h4.29v4.93a9.59,9.59,0,0,1,9-5.4,16,16,0,0,1,1.8.12v4.64a13.46,13.46,0,0,0-2.9-.29c-4.58,0-7.89,3.36-7.89,8.24v17Z" fill="#fff"/><path d="M549.81,193.57h4.3v32.77c0,3.25.92,4.53,3.65,4.53a15,15,0,0,0,2.09-.12v3.66a5.94,5.94,0,0,1-2.67.46,8.41,8.41,0,0,1-4.76-1.28c-1.62-1-2.61-3.42-2.61-7Z" fill="#fff"/><path d="M559.79,219.5c0-4.7,1.39-8.47,4.12-11.31a14,14,0,0,1,10.49-4.29,12.2,12.2,0,0,1,9.69,4.23,14.94,14.94,0,0,1,3.77,10.33c0,.63,0,1.27-.06,1.85H564.08c.23,6.44,4.35,10.56,10.44,10.56,4,0,6.38-1.28,9-4.06l2.84,2.78a15.21,15.21,0,0,1-11.83,5.16,14.54,14.54,0,0,1-10.67-4.11c-2.73-2.73-4.06-6.38-4.06-10.91Zm23.49-3a8.16,8.16,0,0,0-2.61-6.09,8.73,8.73,0,0,0-6.27-2.55,10.19,10.19,0,0,0-6.9,2.55,8.72,8.72,0,0,0-3.13,6.09Z" fill="#fff"/><path d="M593.25,226.29c.76,2.49,3.37,4.4,7.37,4.4,4.81,0,6.44-2.2,6.44-4.46a3.73,3.73,0,0,0-1.63-3.31,30,30,0,0,0-5.68-2.78c-5.33-2.09-8-4.29-8-8.53,0-4.46,3.66-7.71,8.82-7.71a8.76,8.76,0,0,1,8.47,5l-3.48,1.8a5.25,5.25,0,0,0-4.93-2.9c-2.73,0-4.58,1.39-4.58,3.77s2,3.6,6.38,5.28c6,2.32,8.87,4.87,8.87,9.34,0,4.64-3.77,8.47-10.73,8.47-5.57,0-9.86-2.56-11-7Z" fill="#fff"/><path d="M617.27,226.29c.75,2.49,3.36,4.4,7.36,4.4,4.82,0,6.44-2.2,6.44-4.46a3.75,3.75,0,0,0-1.62-3.31,30.46,30.46,0,0,0-5.69-2.78c-5.33-2.09-7.94-4.29-7.94-8.53,0-4.46,3.65-7.71,8.81-7.71a8.76,8.76,0,0,1,8.47,5l-3.48,1.8a5.24,5.24,0,0,0-4.93-2.9c-2.73,0-4.58,1.39-4.58,3.77s2,3.6,6.38,5.28c6,2.32,8.87,4.87,8.87,9.34,0,4.64-3.77,8.47-10.73,8.47-5.57,0-9.86-2.56-11-7Z" fill="#fff"/><g id="akka"><path d="M349.64,105.46V93.34h19.92v58.44c0,7.13,1.66,9.79,6.14,9.79,1.17,0,2.66-.17,4.15-.33v16.1a28.71,28.71,0,0,1-9.79,1.33c-4.81,0-8.63-.83-11.62-2.66a15.41,15.41,0,0,1-6.81-10.12C345.82,174.68,336.2,179,322.92,179A39.74,39.74,0,0,1,293,166.38c-8-8.46-12-18.75-12-31.2s4-22.75,12-31.05a39.77,39.77,0,0,1,29.88-12.61C336.36,91.52,346.49,97.49,349.64,105.46Zm-6,48a24.42,24.42,0,0,0,7.47-18.26,24.39,24.39,0,0,0-7.47-18.26,24.79,24.79,0,0,0-18.1-7.31,24,24,0,0,0-17.76,7.31c-4.65,4.81-7,11-7,18.26s2.32,13.44,7,18.26a24,24,0,0,0,17.76,7.3A24.82,24.82,0,0,0,343.67,153.44Z" fill="#fff"/><path d="M388.48,177V61.31h19.76v67.56l30.87-35.53H462l-32.7,37.35L465.51,177H442.93l-26.39-33.7-8.3,9.3V177Z" fill="#fff"/><path d="M470.82,177V61.31h19.75v67.56l30.88-35.53h22.91l-32.7,37.35L547.84,177H525.27l-26.4-33.7-8.3,9.3V177Z" fill="#fff"/><path d="M607.87,105.46V93.34h19.92v58.44c0,7.13,1.66,9.79,6.14,9.79,1.17,0,2.66-.17,4.15-.33v16.1a28.71,28.71,0,0,1-9.79,1.33c-4.81,0-8.63-.83-11.62-2.66a15.41,15.41,0,0,1-6.81-10.12c-5.81,8.79-15.43,13.11-28.71,13.11a39.74,39.74,0,0,1-29.88-12.62c-8-8.46-12-18.75-12-31.2s4-22.75,12-31.05a39.77,39.77,0,0,1,29.88-12.61C594.59,91.52,604.72,97.49,607.87,105.46Zm-6,48a24.42,24.42,0,0,0,7.47-18.26,24.39,24.39,0,0,0-7.47-18.26,24.79,24.79,0,0,0-18.1-7.31A24,24,0,0,0,566,116.92c-4.65,4.81-7,11-7,18.26s2.32,13.44,7,18.26a24,24,0,0,0,17.76,7.3A24.82,24.82,0,0,0,601.9,153.44Z" fill="#fff"/></g><g id="icon"><path d="M230.26,212.82c35.88,28.67,58.91-57,1.74-72.82-48-13.29-96.33,9.5-144.66,62.74C87.34,202.74,176.67,170,230.26,212.82Z" fill="#fff" opacity="0.5"/><path d="M88.08,202c34.41-35.69,91.64-75.53,144.9-60.75A46.09,46.09,0,0,1,259.9,160.6L209.48,58.78c-7.2-11.46-25.58-9.15-35.95-.26L40.29,170.07a27.4,27.4,0,0,0-1.56,40.15l0,0a27.4,27.4,0,0,0,36.51,2L88.14,202Z" fill="#fff"/></g></g></g></svg>