<svg width="60px" height="60px" viewBox="0 0 30 30" version="1.1" xmlns="http://www.w3.org/2000/svg" xmlns:xlink="http://www.w3.org/1999/xlink">
  <!-- Generator: Sketch 42 (36781) - http://www.bohemiancoding.com/sketch -->
  <title>Bugs</title>
  <desc></desc>
  <defs></defs>
  <g id="Page-1" stroke="none" stroke-width="1" fill="none" fill-rule="evenodd">
    <g id="Bugs" fill="#15A9CE">
      <path d="M13.503916,6.20096894 C13.9818812,6.0825087 14.4744669,6.02061856 14.9777397,6.02061856 C15.4675385,6.02061856 15.9472147,6.07923911 16.4131427,6.19157614 L17.5645373,4.4185838 C17.3797423,4.16675333 17.2705479,3.85562251 17.2705479,3.51890034 C17.2705479,2.68003485 17.9482539,2 18.7842466,2 C19.6202392,2 20.2979452,2.68003485 20.2979452,3.51890034 C20.2979452,4.35776584 19.6202392,5.03780069 18.7842466,5.03780069 C18.722814,5.03780069 18.6622361,5.03412851 18.6027191,5.02699097 L17.5827424,6.59761738 C18.647252,7.08466232 19.6128501,7.86196719 20.4280495,8.85989179 C20.2189889,8.91787488 20.0020202,8.97492964 19.7780526,9.03036468 C18.232322,9.41295421 16.6728434,9.64212091 15.2072108,9.64212091 C15.0361843,9.64212091 14.8622418,9.6389399 14.6855383,9.63265426 C13.3507142,9.58517237 11.9099213,9.36525175 10.4566744,9.02789839 C10.1497886,8.95665863 9.8536204,8.8827404 9.57045946,8.80759082 C10.3677174,7.8454261 11.3061356,7.09273337 12.3384726,6.61341043 L11.3132467,5.03470091 C11.2810127,5.03675698 11.2485045,5.03780069 11.2157534,5.03780069 C10.3797608,5.03780069 9.70205479,4.35776584 9.70205479,3.51890034 C9.70205479,2.68003485 10.3797608,2 11.2157534,2 C12.0517461,2 12.7294521,2.68003485 12.7294521,3.51890034 C12.7294521,3.88406823 12.6010294,4.21913832 12.3870308,4.48111652 L13.503916,6.20096894 Z M6.94908621,18.7079038 C7.03644788,19.4699504 7.18169383,20.2061158 7.37855474,20.9079202 L3.97285809,22.283911 C3.35334144,22.5342119 3.0428727,23.2528739 3.29704109,23.8819628 C3.55298148,24.5154375 4.26587142,24.8155339 4.89328323,24.5620431 L8.26331759,23.2004608 C9.72631541,26.0980459 12.1878132,28 14.9777397,28 C17.7605494,28 20.2166039,26.1077368 21.6809466,23.2226156 L25.1067168,24.6067166 C25.7341286,24.8602075 26.4470185,24.560111 26.7029589,23.9266363 C26.9571273,23.2975475 26.6466586,22.5788855 26.0271419,22.3285845 L22.5701797,20.9318811 C22.7704703,20.2228778 22.9180368,19.4786278 23.0063932,18.7079038 L26.7747526,18.7079038 C27.4429229,18.7079038 28,18.1578756 28,17.4793814 C28,16.796157 27.4514381,16.2508591 26.7747526,16.2508591 L23.0836421,16.2508591 C23.0508879,15.6017815 22.9764653,14.9681833 22.8639645,14.3549204 L26.0271419,13.0769138 C26.6466586,12.8266128 26.9571273,12.1079508 26.7029589,11.478862 C26.4470185,10.8453873 25.7341286,10.5452908 25.1067168,10.7987816 L22.2007921,11.9728514 C21.9509917,11.3188969 21.6540723,10.7032149 21.3161085,10.1340217 C20.9460142,10.245261 20.5481689,10.3548953 20.1273579,10.4590518 C18.4760273,10.8677788 16.8045619,11.1134021 15.2072108,11.1134021 C15.018706,11.1134021 14.8275533,11.1099063 14.6338732,11.1030168 C13.1945752,11.0518186 11.6652283,10.8183812 10.1279376,10.4615181 C9.60953014,10.3411762 9.12014052,10.21353 8.66887007,10.0846312 C8.31465464,10.6742195 8.00470816,11.3144229 7.74587885,11.9959786 L4.89328323,10.8434552 C4.26587142,10.5899644 3.55298148,10.8900608 3.29704109,11.5235355 C3.0428727,12.1526243 3.35334144,12.8712864 3.97285809,13.1215873 L7.08697854,14.3797737 C6.97701189,14.9852967 6.90414925,15.6105459 6.87183734,16.2508591 L3.22524737,16.2508591 C2.55707713,16.2508591 2,16.8008873 2,17.4793814 C2,18.1626059 2.54856193,18.7079038 3.22524737,18.7079038 L6.94908621,18.7079038 Z"></path>
    </g>
  </g>
</svg>