<svg id="Layer_1" data-name="Layer 1" xmlns="http://www.w3.org/2000/svg" viewBox="0 0 282 180"><defs><style>.cls-1{fill:#0b5567;}.cls-1,.cls-2{fill-rule:evenodd;}.cls-2{fill:#15a9ce;}</style></defs><title>cloudflow-icon-full-color-flush</title><path class="cls-1" d="M281,130c-39.85-58-92.81-64.8-122-53C102.78,99.73,73.36,126.69,1,65c.23,61.77,59.27,118.7,101,112S203.15,104.19,281,130Z"/><path class="cls-2" d="M123,119c44.38-20.81,76.23-19,89-17,23,3.66,49.12,10.49,69,28-38.57-65.27-81.65-63.48-128-56C95.6,83.26,73.36,126.69,1,65,24.69,143.47,68,144.78,123,119Z"/><path class="cls-1" d="M191,56c-23.45-36.39-57.78-42.85-77-38C77,27.35,57.19,40.55,12,1,10.48,36.05,49.79,68.17,77,67,118.14,66.66,141.28,36.45,191,56Z"/><path class="cls-2" d="M90,40c29.3-9,49.78-7,58-5,14.8,3.52,30.61,9.81,43,21-23.45-36.39-46.58-44-80-41C73.93,18.31,57.19,40.55,12,1,25.21,47,53.69,51.16,90,40Z"/></svg>