<svg width="60px" height="60px" xmlns="http://www.w3.org/2000/svg" viewBox="0 0 56 50.4">
    <title>Code of Conduct</title>
    <path d="M36.2,4,29.14,14.27s-.76,2.18,2.54,3C38.41,18.46,47,14.8,49.91,12.45L58,4Z" transform="translate(-2 -4)" fill="#15a9ce"></path><path d="M19.37,22.85a7.18,7.18,0,0,0-4.66,4L12.8,33.06a3.5,3.5,0,0,0,.06,2.85l3.46,6.56a2.27,2.27,0,0,0,3,1c.92-.48,1.37-2.05,1.18-4.38a14.7,14.7,0,0,0-2-6c1-1.37,1.8-2.49,2.33-3.25A29.18,29.18,0,0,1,19.37,22.85Z" transform="translate(-2 -4)" fill="#15a9ce"></path><path d="M41.79,38.47c.53,2.4.27,4.42-.7,5.67a2.12,2.12,0,0,1-2.2,1,3.12,3.12,0,0,1-1,2.49,3,3,0,0,1-2.24.69,2.29,2.29,0,0,1-.78,2.11,2.54,2.54,0,0,1-2.21.72S33,52,31.82,53s-4.13-.46-4.63-.84l-.79-.62A2.49,2.49,0,0,1,27,47.38a2.45,2.45,0,0,1-.07-2.65,2.22,2.22,0,0,1,2.84-.94,2.33,2.33,0,0,1,.59-2.57A2.24,2.24,0,0,1,33.16,41a2.45,2.45,0,0,1,.21-2,2.08,2.08,0,0,1,2.34-1,11.15,11.15,0,0,1,3.6,1.91,5,5,0,0,0,.35-1.13A5.84,5.84,0,0,0,41.79,38.47Z" transform="translate(-2 -4)" fill="#15a9ce"></path><path d="M48.19,32.51a3.71,3.71,0,0,0,.32-3.83s2.7-1.35,2-4c0,0,2.73-1.82,1.51-4.51a4.46,4.46,0,0,0,1.91-3.05c.27-2.21-.82-3-2.42-3.16-3.27,2.82-13.11,6.7-19.84,5.47-3-.57-4.52-2.22-4.58-4.25,0-.45,0-1.25-.69-1.47-3.14-.86-4.56,4.08-4.86,7.12-.39,4,1.71,9.31,1.71,9.31-.33.52-1.21,1.76-2.4,3.4A16.93,16.93,0,0,1,22.34,39c.07,1.2.26,4.85-2.15,6.11a4,4,0,0,1-5.5-1.79l-.44-.85L2,55.92H24.77l1.9-1.65a5.43,5.43,0,0,1-3.24-4.42,4.66,4.66,0,0,1,1.05-3.16,4.7,4.7,0,0,1,.6-3.06,4.59,4.59,0,0,1,2.64-2.11,5.48,5.48,0,0,1,1-1.67,4.08,4.08,0,0,1,2.57-1.47,4.06,4.06,0,0,1,4.82-2.54,8.31,8.31,0,0,1,3.14,1.41A10.86,10.86,0,0,0,48.19,32.51Z" transform="translate(-2 -4)" fill="#15a9ce"></path>
</svg>