<svg width="60px" height="60px" viewBox="0 0 30 30" version="1.1" xmlns="http://www.w3.org/2000/svg" xmlns:xlink="http://www.w3.org/1999/xlink">
  <!-- Generator: Sketch 42 (36781) - http://www.bohemiancoding.com/sketch -->
  <title>Octocat</title>
  <desc></desc>
  <defs></defs>
  <g id="Page-1" stroke="none" stroke-width="1" fill="none" fill-rule="evenodd">
    <g id="Octocat" fill="#ffffff" fill-rule="nonzero">
      <path d="M6.70055703,14.1281959 L6.54849128,13.7846153 C6.34782305,13.7763505 3.75175648,13.6728124 2.27360767,13.78513 C2.13102677,13.8201826 1.77230019,13.5537723 2.21127813,13.4434801 C3.30325666,13.3293634 6.0364189,13.4275231 6.41326037,13.4418066 C6.13128555,12.5785288 6.0145738,11.5962523 6.0145738,10.5086326 C6.0145738,8.9761219 6.56995185,7.72612507 7.47948925,6.74696239 C7.33397948,6.39198953 6.85552209,4.96266447 7.62950257,3.03219069 C7.62950257,3.03219069 8.81510771,2.65776664 11.5005759,4.48532435 C12.6274547,4.17711519 13.8354875,4.0251444 15.0310455,4.0251444 C16.1176626,4.0251444 17.2024332,4.15079095 18.2222626,4.40486923 C20.8249104,2.66737993 21.9754329,3.03183131 21.9754329,3.03183131 C22.6276373,4.65867797 22.3900299,5.92951855 22.2123197,6.50177865 C23.2293569,7.51431831 23.8558461,8.84494995 23.855801,10.5081384 C23.855801,11.596097 23.7892976,12.5787408 23.5734926,13.4423111 C23.8936749,13.4300586 26.6828318,13.3279096 27.7887219,13.4434801 C28.2276998,13.5537723 27.8689732,13.8201826 27.7263923,13.78513 C26.2802983,13.6752481 23.7642464,13.7719615 23.4679073,13.7839464 L23.3458339,14.129259 C23.9325376,14.0909797 27.3033187,13.9066806 27.5473843,14.7068983 C27.6644456,15.0222358 27.374543,14.9120802 27.2756037,14.8061921 C26.4965048,14.1683297 23.6059677,14.3959567 23.2345153,14.428146 C22.4731688,16.0917504 20.8443293,17.1626287 17.4922368,17.4942128 C18.0741408,17.8879982 18.669015,18.6345104 18.669015,20.0437553 L18.669015,23.6574078 C18.669015,23.6574078 18.7436388,24.551713 19.5654921,24.8497249 C19.5654921,24.8497249 20.0506597,25.1850669 19.5280225,25.3709987 C19.5280225,25.3709987 17.2495854,25.5576042 17.2495854,23.694693 L17.2495854,20.9378359 C17.2495854,20.9378359 17.3396114,19.9216576 16.801527,19.5033898 L16.801527,23.992615 C16.801527,23.992615 16.8387263,25.0730317 17.3990132,25.482944 C17.3990132,25.482944 17.7724028,26.1533136 16.9509548,25.9674267 C16.9509548,25.9674267 15.3822325,25.7437606 15.3075636,23.9183142 L15.2717153,19.3356514 L14.8946329,19.3356514 L14.8590999,23.9183142 C14.7843409,25.7437606 13.2156186,25.9674267 13.2156186,25.9674267 C12.3938104,26.1533136 12.7676503,25.482944 12.7676503,25.482944 C13.3278922,25.0732563 13.3651365,23.992615 13.3651365,23.992615 L13.3651365,19.4642628 C12.8265567,19.8444368 12.916943,20.9377461 12.916943,20.9377461 L12.916943,23.694693 C12.916943,25.5574695 10.638641,25.3710885 10.638641,25.3710885 C10.1154634,25.1852466 10.6010364,24.8495902 10.6010364,24.8495902 C11.4229797,24.5516232 11.4975135,23.6573629 11.4975135,23.6573629 L11.4975135,21.1291583 C7.96880019,21.9145728 7.23760346,19.4666886 7.23760346,19.4666886 C6.67700129,18.0317483 5.86456048,17.6498672 5.86456048,17.6498672 C4.73430399,16.8765367 5.94846165,16.8951793 5.94846165,16.8951793 C7.20004384,16.9884371 7.85400465,18.1811585 7.85400465,18.1811585 C9.02231615,20.1854839 10.9692468,19.4691593 11.584432,19.1756845 C11.7710142,18.3052777 12.2314123,17.790877 12.6827583,17.4885976 C9.53872194,17.1505688 7.75569221,16.0824005 6.83964192,14.4291354 C6.52067447,14.4010668 3.57488598,14.1613165 2.78722098,14.8061921 C2.68828166,14.9120802 2.39837912,15.0222358 2.5154404,14.7068983 C2.75731956,13.9138493 6.07014452,14.0877567 6.70055703,14.1281959 Z"></path>
    </g>
  </g>
</svg>