<svg id="Layer_1" data-name="Layer 1" xmlns="http://www.w3.org/2000/svg" viewBox="0 0 100 100"><title>caution-white</title><path d="M82.82,73a10.54,10.54,0,0,0-1.17-2.2c-.79-1.31-1.51-2.65-2.29-4-.65-1.08-1.25-2.18-1.88-3.27-.79-1.35-1.61-2.69-2.37-4s-1.63-2.81-2.43-4.22c-.5-.88-1-1.78-1.51-2.64s-1-1.73-1.5-2.58-.81-1.43-1.22-2.14-1-1.6-1.42-2.41c-.89-1.63-1.88-3.2-2.75-4.84-.54-1-1.17-2-1.73-3-.87-1.56-1.79-3.09-2.69-4.64l-2.58-4.44-2.31-4c-.36-.62-.66-1.29-1.08-1.88A4,4,0,0,0,51,21a4.17,4.17,0,0,0-3.07.87,5.06,5.06,0,0,0-1.26,1.61c-.64,1.14-1.28,2.29-1.93,3.42s-1.39,2.31-2,3.48c-.77,1.38-1.56,2.74-2.35,4.11-.42.72-.86,1.43-1.26,2.15-.47.87-1,1.71-1.46,2.58-.62,1.17-1.33,2.29-2,3.43l-2.33,4.08c-.91,1.57-1.83,3.13-2.73,4.7S28.8,54.51,27.92,56s-1.64,2.83-2.47,4.24c-.62,1.08-1.29,2.13-1.87,3.23-.46.85-1,1.64-1.45,2.5s-.84,1.44-1.26,2.16c-.67,1.14-1.33,2.28-2,3.43a6.32,6.32,0,0,0-.73,1.53,4,4,0,0,0,.33,3,3.84,3.84,0,0,0,3.42,2.23c1.08,0,2.16,0,3.24,0h54a3.2,3.2,0,0,0,1.65-.47,4.38,4.38,0,0,0,1.92-2.23A4,4,0,0,0,82.82,73ZM49.75,30.55h1.5a3.81,3.81,0,0,1,3.54,4.17l-1,25.44a2.86,2.86,0,0,1-2.69,2.91H49.91a2.86,2.86,0,0,1-2.69-2.91l-1-25.44A3.81,3.81,0,0,1,49.75,30.55Zm.75,44a4.3,4.3,0,1,1,4.3-4.29A4.3,4.3,0,0,1,50.5,74.52Z" fill="#fff" fill-rule="evenodd"/></svg>