<svg xmlns="http://www.w3.org/2000/svg" viewBox="0 0 274 80"><title>lightbend-platform-reverse</title><g id="lightbend-platform-reverse"><g id="icon"><path d="M1,59V76a3,3,0,0,0,3,3H88a3,3,0,0,0,3-3V59a167.38,167.38,0,0,1-45,6A167.38,167.38,0,0,1,1,59Z" fill="#fff"/><path d="M88,1H4A3,3,0,0,0,1,4V53c14.57,4.2,29.65,7,45,7s30.43-2.8,45-7V4A3,3,0,0,0,88,1Z" fill="#fff"/></g><g id="lightbend"><path d="M104,14.73a1,1,0,1,1,2,0V29.4h6.24a.91.91,0,0,1,.89.92.88.88,0,0,1-.89.89H105a1,1,0,0,1-1-1Z" fill="#fff"/><path d="M116.77,14.39a1.14,1.14,0,0,1,2.26,0v.32a1.14,1.14,0,0,1-2.26,0Zm.18,4.85a1,1,0,1,1,1.9,0V30.37a.93.93,0,0,1-.94,1,1,1,0,0,1-1-1Z" fill="#fff"/><path d="M124,33.72a.89.89,0,0,1-.5-.8.91.91,0,0,1,.87-.84.8.8,0,0,1,.42.12,8.05,8.05,0,0,0,4.54,1.39C132.16,33.59,134,32,134,29V27.52a6,6,0,0,1-5,2.7,5.92,5.92,0,0,1-6-6v-.05a6.07,6.07,0,0,1,11-3.47V19.24a.94.94,0,0,1,.94-1,1,1,0,0,1,1,1V29a6.18,6.18,0,0,1-1.64,4.54,6.73,6.73,0,0,1-4.88,1.71A10,10,0,0,1,124,33.72Zm10-9.52v-.05a4.49,4.49,0,0,0-4.7-4.34,4.24,4.24,0,0,0-4.44,4.32v.05a4.34,4.34,0,0,0,4.44,4.36A4.52,4.52,0,0,0,134,24.2Z" fill="#fff"/><path d="M140.26,14a1,1,0,1,1,1.91,0v6.66a4.84,4.84,0,0,1,4.39-2.5c3.1,0,4.9,2.08,4.9,5.13v7.11a1,1,0,1,1-1.9,0V23.73c0-2.38-1.29-3.87-3.55-3.87a3.77,3.77,0,0,0-3.84,4v6.49a.93.93,0,0,1-.94,1,1,1,0,0,1-1-1Z" fill="#fff"/><path d="M156,27.82V20.09h-1a.87.87,0,0,1-.84-.85.85.85,0,0,1,.84-.84h1v-3a1,1,0,0,1,.94-1,1,1,0,0,1,1,1v3h3.32a.87.87,0,0,1,.87.84.85.85,0,0,1-.87.85h-3.32v7.48A1.9,1.9,0,0,0,160,29.7a5.31,5.31,0,0,0,1.16-.17.82.82,0,0,1,.82.82.79.79,0,0,1-.54.74,4.9,4.9,0,0,1-1.89.35A3.26,3.26,0,0,1,156,27.82Z" fill="#fff"/><path d="M166.16,14a1,1,0,1,1,1.91,0v7A5.75,5.75,0,0,1,173,18.13c3.07,0,6.12,2.43,6.12,6.64v.05c0,4.19-3,6.67-6.12,6.67a5.78,5.78,0,0,1-4.91-2.73v1.61a1,1,0,0,1-.94,1,1,1,0,0,1-1-1Zm11,10.88V24.8c0-3-2.08-5-4.51-5A4.78,4.78,0,0,0,168,24.77v.05a4.78,4.78,0,0,0,4.64,5C175.11,29.78,177.14,27.94,177.14,24.85Z" fill="#fff"/><path d="M188,31.51a6.37,6.37,0,0,1-6.4-6.66V24.8c0-3.7,2.61-6.67,6.15-6.67,3.79,0,5.95,3.1,5.95,6.49a.89.89,0,0,1-.89.89h-9.27A4.47,4.47,0,0,0,188,29.85a5.23,5.23,0,0,0,3.69-1.49.85.85,0,0,1,.54-.22.81.81,0,0,1,.55,1.44A6.52,6.52,0,0,1,188,31.51Zm3.79-7.41c-.2-2.33-1.54-4.36-4.09-4.36-2.23,0-3.91,1.86-4.16,4.36Z" fill="#fff"/><path d="M196.84,19.24a1,1,0,1,1,1.91,0v1.39a4.84,4.84,0,0,1,4.38-2.5c3.1,0,4.91,2.08,4.91,5.13v7.11a1,1,0,1,1-1.91,0V23.73c0-2.38-1.29-3.87-3.54-3.87a3.77,3.77,0,0,0-3.84,4v6.49a.93.93,0,0,1-.94,1,1,1,0,0,1-1-1Z" fill="#fff"/><path d="M224,30.37a1,1,0,1,1-1.91,0V28.64a5.77,5.77,0,0,1-4.9,2.85,6.25,6.25,0,0,1-6.13-6.64V24.8a6.29,6.29,0,0,1,6.13-6.67,5.78,5.78,0,0,1,4.9,2.73V14a.93.93,0,0,1,.94-1,1,1,0,0,1,1,1Zm-11-5.6v.05a4.64,4.64,0,0,0,4.51,5,4.79,4.79,0,0,0,4.64-5v-.05a4.76,4.76,0,0,0-4.64-4.93C215.05,19.84,213,21.67,213,24.77Z" fill="#fff"/></g><path d="M103.36,41H114.8c6.68,0,10.72,4,10.72,9.68v.08c0,6.48-5,9.84-11.32,9.84h-4.68V69h-6.16Zm11,14.12c3.08,0,4.88-1.84,4.88-4.24V50.8c0-2.76-1.92-4.24-5-4.24h-4.76v8.56Z" fill="#fff"/><path d="M128.89,39.8H135V69h-6.08Z" fill="#fff"/><path d="M138.75,62.84v-.08c0-4.68,3.56-6.84,8.64-6.84a15.23,15.23,0,0,1,5.24.88v-.36c0-2.52-1.56-3.92-4.6-3.92a15.77,15.77,0,0,0-5.92,1.16L140.59,49a18.92,18.92,0,0,1,8.32-1.72c3.32,0,5.72.88,7.24,2.4s2.32,4,2.32,6.84V69h-5.88V66.68a8.24,8.24,0,0,1-6.48,2.72C142.07,69.4,138.75,67.08,138.75,62.84Zm14-1.4V60.36a9.43,9.43,0,0,0-3.88-.8c-2.6,0-4.2,1-4.2,3v.08c0,1.64,1.36,2.6,3.32,2.6C150.79,65.2,152.71,63.64,152.71,61.44Z" fill="#fff"/><path d="M164,62.92V52.76h-2.56v-5.2H164V42.08h6.08v5.48h5v5.2h-5v9.16c0,1.4.6,2.08,2,2.08a6.18,6.18,0,0,0,3-.76v4.88a9,9,0,0,1-4.8,1.24C166.51,69.36,164,67.88,164,62.92Z" fill="#fff"/><path d="M180.43,52.76h-2.52v-5h2.52V46.4a7,7,0,0,1,1.72-5.19,6.63,6.63,0,0,1,4.92-1.68,13.5,13.5,0,0,1,4.32.59v5a7.7,7.7,0,0,0-2.76-.52c-1.4,0-2.2.72-2.2,2.32v.84h4.92v5h-4.84V69h-6.08Z" fill="#fff"/><path d="M192.84,58.4v-.08c0-6.16,5-11.16,11.64-11.16S216,52.08,216,58.24v.08c0,6.16-5,11.16-11.64,11.16S192.84,64.56,192.84,58.4Zm17.2,0v-.08a5.7,5.7,0,0,0-5.64-5.92c-3.48,0-5.56,2.68-5.56,5.84v.08a5.7,5.7,0,0,0,5.64,5.92C208,64.24,210,61.56,210,58.4Z" fill="#fff"/><path d="M219.89,47.56H226v4.32c1.24-3,3.24-4.88,6.84-4.72v6.36h-.32c-4,0-6.52,2.44-6.52,7.56V69h-6.08Z" fill="#fff"/><path d="M235.8,47.56h6.08v3a7.66,7.66,0,0,1,6.32-3.44,6.42,6.42,0,0,1,6,3.4,8.83,8.83,0,0,1,7-3.4c4.52,0,7.24,2.72,7.24,7.88V69h-6.08V57c0-2.88-1.28-4.36-3.56-4.36S255.2,54.16,255.2,57V69h-6.08V57c0-2.88-1.28-4.36-3.56-4.36s-3.68,1.48-3.68,4.36V69H235.8Z" fill="#fff"/></g></svg>