<svg id="Layer_1" data-name="Layer 1" xmlns="http://www.w3.org/2000/svg" viewBox="0 0 1006 196"><defs><style>.cls-1{fill:#ff931e;}.cls-2{fill:#f48122;}.cls-2,.cls-3{fill-rule:evenodd;}.cls-3{fill:#ffa94b;}</style></defs><title>lightbend-cloudflow-orange</title><path class="cls-1" d="M380.88,86.56,368.59,99.34a28.16,28.16,0,0,0-21.25-9.13,25,25,0,0,0-18.42,7.48,26.06,26.06,0,0,0-7.3,18.75,26.06,26.06,0,0,0,7.3,18.76,25.05,25.05,0,0,0,18.43,7.47,28.16,28.16,0,0,0,21.25-9.13l12.28,12.78c-9,9.63-20.08,14.44-33.53,14.44-12.78,0-23.57-4.14-32.37-12.61s-13.12-19.09-13.12-31.7S306.18,93.37,315,84.91s19.59-12.79,32.37-12.79C360.79,72.12,371.91,76.93,380.88,86.56Z"/><path class="cls-1" d="M386.19,52.73h19.92V131c0,8.14,2.65,11.62,10,11.62a21.11,21.11,0,0,0,6-.66v17.76a36,36,0,0,1-9.47,1c-17.59,0-26.39-9-26.39-27.06Z"/><path class="cls-1" d="M420.72,116.6A42.24,42.24,0,0,1,434,85.06c8.8-8.47,19.59-12.79,32.37-12.79s23.57,4.32,32.37,12.78A42.24,42.24,0,0,1,512,116.59a42.22,42.22,0,0,1-13.27,31.54c-8.8,8.47-19.59,12.79-32.37,12.79S442.81,156.6,434,148.14A42.29,42.29,0,0,1,420.72,116.6Zm64.08,18.75a25.8,25.8,0,0,0,7.47-18.76A25.14,25.14,0,0,0,484.8,98a26.27,26.27,0,0,0-37,0,25.72,25.72,0,0,0-7.3,18.6,26.32,26.32,0,0,0,7.3,18.75,26.67,26.67,0,0,0,37,0Z"/><path class="cls-1" d="M517.5,74.76h19.92v49c0,11.45,6.14,18.59,16.93,18.59,10.62,0,18.26-8,18.26-19.43V74.75h19.92V133c0,7.13,1.66,9.62,6.14,9.62a40.19,40.19,0,0,0,4.15-.33v16.27a28.71,28.71,0,0,1-9.79,1.33c-5.15,0-9.13-1.16-12.29-3.32a15.64,15.64,0,0,1-6-8.8c-4.82,8.14-13.28,12.29-25.4,12.29-19.92,0-31.87-12.78-31.87-33.53Z"/><path class="cls-1" d="M670.88,86.86V42.7H690.8v90.47c0,7.14,1.66,9.79,6.14,9.79a40,40,0,0,0,4.15-.33v16.1a28.71,28.71,0,0,1-9.79,1.33c-4.81,0-8.63-.83-11.62-2.65a15.41,15.41,0,0,1-6.81-10.13c-5.81,8.8-15.43,13.12-28.71,13.12a39.77,39.77,0,0,1-29.88-12.61c-8-8.47-12-18.76-12-31.21s4-22.74,11.95-31a39.74,39.74,0,0,1,29.88-12.62C657.6,72.92,667.73,78.89,670.88,86.86Zm-6,48a24.39,24.39,0,0,0,7.47-18.26,24.42,24.42,0,0,0-7.47-18.26A24.8,24.8,0,0,0,646.82,91a24,24,0,0,0-17.77,7.31c-4.64,4.81-7,11-7,18.26s2.33,13.44,7,18.26a24,24,0,0,0,17.76,7.3A24.75,24.75,0,0,0,664.91,134.83Z"/><path class="cls-1" d="M714.39,158.4V92.83H700.77V74.74h13.62V70.59c0-12.79,2.65-19.59,9.12-24.74,4.48-3.65,11.29-5.48,20.75-5.48a45.14,45.14,0,0,1,8.63.66v17.1a26.82,26.82,0,0,0-7.64-.83c-7.47,0-11,3.32-11,11.79v5.64h15.77v18.1H734.3V158.4Z"/><path class="cls-1" d="M758.86,42.69h19.92V131c0,8.14,2.66,11.62,10,11.62a21.13,21.13,0,0,0,6-.66v17.76a35.9,35.9,0,0,1-9.46,1c-17.6,0-26.4-9-26.4-27.06Z"/><path class="cls-1" d="M793.4,116.56A42.25,42.25,0,0,1,806.67,85c8.8-8.47,19.59-12.79,32.37-12.79S862.62,76.55,871.41,85a42.25,42.25,0,0,1,13.29,31.54,42.24,42.24,0,0,1-13.28,31.54c-8.8,8.47-19.59,12.79-32.37,12.79s-23.57-4.32-32.37-12.78A42.24,42.24,0,0,1,793.4,116.56Zm64.08,18.75a25.76,25.76,0,0,0,7.46-18.76A25.14,25.14,0,0,0,857.47,98a26.27,26.27,0,0,0-37,0,25.7,25.7,0,0,0-7.3,18.6,26.29,26.29,0,0,0,7.31,18.75,26.67,26.67,0,0,0,37,0Z"/><path class="cls-1" d="M909.6,158.38,881.71,74.72h18.76l17.43,52.12,16.93-52.13h15.1l16.94,52.12L984.3,74.71h18.92l-28.05,83.67H959.74l-17.27-52.95-17.26,53Z"/><path class="cls-2" d="M281,146c-39.85-58-92.81-64.8-122-53C102.78,115.73,73.36,142.69,1,81c.23,61.77,59.27,118.7,101,112S203.15,120.19,281,146Z"/><path class="cls-3" d="M123,135c44.38-20.81,76.23-19,89-17,23,3.66,49.12,10.49,69,28-38.57-65.27-81.65-63.48-128-56C95.6,99.26,73.36,142.69,1,81,24.69,159.47,68,160.78,123,135Z"/><path class="cls-2" d="M191,72c-23.45-36.39-57.78-42.85-77-38C77,43.35,57.19,56.55,12,17,10.48,52.05,49.79,84.17,77,83,118.14,82.66,141.28,52.45,191,72Z"/><path class="cls-3" d="M90,56c29.3-9,49.78-7,58-5,14.8,3.52,30.61,9.81,43,21-23.45-36.39-46.58-44-80-41C73.93,34.31,57.19,56.55,12,17,25.21,63,53.69,67.16,90,56Z"/><path class="cls-1" d="M306,6.54a2.15,2.15,0,1,1,4.29,0V38.73H324a2,2,0,0,1,2,2,2,2,0,0,1-2,2H308.08A2.17,2.17,0,0,1,306,40.53Z"/><path class="cls-1" d="M334,5.78a2.26,2.26,0,0,1,2.44-2.23,2.28,2.28,0,0,1,2.51,2.23v.7a2.31,2.31,0,0,1-2.51,2.23A2.29,2.29,0,0,1,334,6.48Zm.38,10.66a2.09,2.09,0,1,1,4.18,0V40.85A2,2,0,0,1,336.49,43a2.08,2.08,0,0,1-2.12-2.12Z"/><path class="cls-1" d="M349.87,48.2a1.93,1.93,0,0,1-1.09-1.74,2,2,0,0,1,1.9-1.85,1.67,1.67,0,0,1,.93.27,17.7,17.7,0,0,0,9.95,3c6.2,0,10.22-3.42,10.22-10V34.6c-2.45,3.26-5.87,5.93-11,5.93a13,13,0,0,1-13.21-13.16v-.11A13.05,13.05,0,0,1,360.74,14a13.2,13.2,0,0,1,11,5.65v-3.2a2.07,2.07,0,0,1,2.06-2.12,2.11,2.11,0,0,1,2.12,2.12V37.81c0,4.35-1.3,7.67-3.58,9.95-2.51,2.5-6.26,3.75-10.72,3.75A22,22,0,0,1,349.87,48.2Zm22-20.89V27.2c0-5.76-5-9.51-10.33-9.51s-9.74,3.7-9.74,9.46v.11a9.52,9.52,0,0,0,9.74,9.57C366.89,36.83,371.89,33,371.89,27.31Z"/><path class="cls-1" d="M385.54,4.85a2.1,2.1,0,1,1,4.19,0V19.48A10.65,10.65,0,0,1,399.35,14c6.8,0,10.77,4.57,10.77,11.26v15.6A2.07,2.07,0,0,1,408.06,43a2.09,2.09,0,0,1-2.13-2.12V26.28c0-5.22-2.82-8.48-7.77-8.48s-8.43,3.53-8.43,8.81V40.85A2,2,0,0,1,387.66,43a2.09,2.09,0,0,1-2.12-2.12Z"/><path class="cls-1" d="M420,35.25v-17h-2.28a1.91,1.91,0,0,1-1.85-1.85,1.87,1.87,0,0,1,1.85-1.85H420V8a2.08,2.08,0,0,1,2.07-2.12A2.16,2.16,0,0,1,424.21,8v6.64h7.29a1.92,1.92,0,0,1,1.9,1.85,1.88,1.88,0,0,1-1.9,1.85h-7.29V34.71c0,3.42,1.9,4.68,4.73,4.68A11.67,11.67,0,0,0,431.5,39a1.82,1.82,0,0,1,1.79,1.8,1.75,1.75,0,0,1-1.2,1.63,10.53,10.53,0,0,1-4.13.76C423.45,43.19,420,41,420,35.25Z"/><path class="cls-1" d="M442.37,4.85a2.1,2.1,0,1,1,4.19,0V20.24c2.28-3.37,5.6-6.25,10.77-6.25,6.74,0,13.43,5.33,13.43,14.57v.11c0,9.19-6.64,14.63-13.43,14.63a12.69,12.69,0,0,1-10.77-6v3.53A2.07,2.07,0,0,1,444.49,43a2.12,2.12,0,0,1-2.12-2.12Zm24.09,23.88v-.11c0-6.64-4.56-10.88-9.89-10.88A10.49,10.49,0,0,0,446.4,28.56v.11c0,6.53,5,10.88,10.17,10.88C462,39.55,466.46,35.52,466.46,28.73Z"/><path class="cls-1" d="M490.23,43.36c-7.72,0-14-5.93-14-14.63v-.11c0-8.11,5.71-14.63,13.49-14.63,8.32,0,13.05,6.8,13.05,14.25a2,2,0,0,1-2,2H480.44c.6,6.1,4.89,9.52,9.9,9.52a11.5,11.5,0,0,0,8.1-3.26,1.86,1.86,0,0,1,1.2-.49,1.83,1.83,0,0,1,1.85,1.79,1.8,1.8,0,0,1-.66,1.36A14.27,14.27,0,0,1,490.23,43.36Zm8.32-16.26c-.44-5.12-3.37-9.58-9-9.58-4.9,0-8.6,4.08-9.14,9.58Z"/><path class="cls-1" d="M509.7,16.44a2.1,2.1,0,1,1,4.19,0v3A10.64,10.64,0,0,1,523.51,14c6.8,0,10.77,4.57,10.77,11.26v15.6a2.1,2.1,0,1,1-4.19,0V26.28c0-5.22-2.83-8.48-7.77-8.48s-8.43,3.53-8.43,8.81V40.85A2,2,0,0,1,511.82,43a2.08,2.08,0,0,1-2.12-2.12Z"/><path class="cls-1" d="M569.3,40.85a2.09,2.09,0,1,1-4.18,0v-3.8c-2.29,3.37-5.61,6.25-10.77,6.25-6.75,0-13.43-5.33-13.43-14.57v-.11c0-9.19,6.68-14.63,13.43-14.63,5.22,0,8.59,2.83,10.77,6V4.85a2,2,0,0,1,2.06-2.12,2.09,2.09,0,0,1,2.12,2.12ZM545.21,28.56v.11c0,6.64,4.62,10.88,9.9,10.88s10.17-4.41,10.17-10.88v-.11a10.45,10.45,0,0,0-10.17-10.82C549.67,17.74,545.21,21.77,545.21,28.56Z"/></svg>