<svg id="Layer_1" data-name="Layer 1" xmlns="http://www.w3.org/2000/svg" viewBox="0 0 100 100"><title>note-white</title><path d="M82.34,41.6C75,35.36,64.19,30.47,54.05,28.85l-1.61-.26-.26,1.61A23.66,23.66,0,0,1,51,34.51,34,34,0,0,1,53.2,38a36.69,36.69,0,0,0,1.88-5.62A57.7,57.7,0,0,1,79.56,43.52C77.78,56.11,68,70.05,59,79.25,50.27,78,38.73,70,34.89,67.18c1.54-2,4.56-5.94,7.82-10.75-1-.43-2-.9-3-1.4-4.41,6.46-8.3,11.32-8.39,11.43l-1,1.28,1.3,1c.66.52,16.3,12.68,27.86,13.82l.77.07.55-.55C70.44,72.33,81.34,56.92,82.9,43l.1-.86Z" fill="#fff"/><path d="M38,55.2c-4.86-1.11-9-1.39-13.34-7.71a41.46,41.46,0,0,1-4-8.17,21.67,21.67,0,0,0,5,.64c-3-2.2-5.84-3.67-7.14-8.69C17.64,26.13,17.77,21,19.68,17c4.55,6,10.72,8.17,17.41,11.18a30.27,30.27,0,0,1,4.82,2.75C46,34.29,46.07,37.39,46.74,41a19.51,19.51,0,0,0,1.52-4.21c6.23,7.52,8.68,17.1,6.49,23C49.32,50,42.32,40.87,29.87,33.94c11.41,9.91,22.16,26.89,26,35.79A1.26,1.26,0,0,1,54,71.27h0c-1.51-1.09-5.41-7.54-5.86-8.35a44.19,44.19,0,0,1-14-6.19A25.2,25.2,0,0,0,38,55.2Z" fill="#fff"/></svg>