<svg width="50px" height="60px" viewBox="0 0 22 26" version="1.1" xmlns="http://www.w3.org/2000/svg" xmlns:xlink="http://www.w3.org/1999/xlink">
    <!-- Generator: Sketch 42 (36781) - http://www.bohemiancoding.com/sketch -->
    <title>Stack</title>
    <desc></desc>
    <defs></defs>
    <g id="Page-1" stroke="none" stroke-width="1" fill="none" fill-rule="evenodd">
        <g id="Stack" transform="translate(-4.000000, -2.000000)" fill="#15A9CE">
            <path d="M4,18.7636817 L6.28054535,18.7636817 L6.28054535,25.7230096 L22.6408196,25.7230096 L22.6408196,18.7746837 L24.9304239,18.7636817 L24.9304239,28 L4,28 L4,18.7636817 Z M8.61930858,21.052755 L20.2578379,21.0635678 L20.2578379,23.3232893 L8.63581655,23.3232893 L8.61930858,21.052755 Z M9.35764412,15.8118356 L20.7395955,18.2421985 L20.269773,20.4525396 L8.90172074,18.0361855 L9.35764412,15.8118356 Z M11.3738844,10.5708354 L21.9174045,15.4992901 L20.962405,17.5472933 L10.4292765,12.6356148 L11.3738844,10.5708354 Z M14.7978925,5.66131726 L23.7065728,13.1507028 L22.2540519,14.8817498 L13.351067,7.41125852 L14.7978925,5.66131726 Z M19.0025535,1.99049591 L25.9981598,11.291946 L24.193466,12.6518803 L17.1991589,3.37012138 L19.0025535,1.99049591 Z"></path>
        </g>
    </g>
</svg>