<svg id="Layer_1" data-name="Layer 1" xmlns="http://www.w3.org/2000/svg" viewBox="0 0 100 100"><title>tip-white</title><path d="M48.85,33.57a16.12,16.12,0,0,0-15.26,15c-.34,5.26,2.17,9.51,4.75,13.39A16.28,16.28,0,0,1,40.66,68h0a4.31,4.31,0,0,0,3.23,1.46H55.13A4.15,4.15,0,0,0,58.3,68h0a16.37,16.37,0,0,1,2.36-6.1c2-3,4.78-7.21,4.78-12.34A16,16,0,0,0,48.85,33.57Zm9,26.49a20.35,20.35,0,0,0-2.61,6H43.73a20,20,0,0,0-2.57-6c-2.22-3.35-4.22-6.68-4.22-10.57a12.56,12.56,0,1,1,25.12.1C62.06,53.7,59.72,57.23,57.84,60.06Z" fill="#fff"/><path d="M42.65,68.88l.9,6a2.56,2.56,0,0,0,1.62,2l1.24.46,1.37,2.39H51.3l1.31-2.39,1.22-.46a2.53,2.53,0,0,0,1.61-2l.91-6Z" fill="#fff"/><rect x="22.32" y="43.88" width="2.71" height="11.32" transform="translate(-26.08 72.77) rotate(-89.49)" fill="#fff"/><rect x="21.6" y="60.92" width="10.77" height="2.71" transform="translate(-27.34 21.59) rotate(-29.75)" fill="#fff"/><rect x="48.15" y="18" width="2.71" height="10.23" fill="#fff"/><rect x="34.77" y="21.45" width="2.71" height="10.82" transform="translate(-8.54 21.27) rotate(-29.5)" fill="#fff"/><rect x="25.39" y="31.01" width="2.71" height="10.79" transform="translate(-18.2 41) rotate(-59.53)" fill="#fff"/><rect x="69.67" y="48.18" width="11.32" height="2.71" transform="translate(-0.43 0.66) rotate(-0.5)" fill="#fff"/><rect x="70.66" y="56.89" width="2.71" height="10.77" transform="translate(-17.79 93.88) rotate(-60.24)" fill="#fff"/><rect x="57.47" y="25.5" width="10.82" height="2.71" transform="translate(8.54 68.36) rotate(-60.51)" fill="#fff"/><rect x="66.86" y="35.06" width="10.79" height="2.71" transform="translate(-8.49 41.63) rotate(-30.45)" fill="#fff"/></svg>